<?xml version="1.0" encoding="utf-8"?>
<!-- Generator: Adobe Illustrator 15.0.0, SVG Export Plug-In . SVG Version: 6.00 Build 0)  -->
<!DOCTYPE svg PUBLIC "-//W3C//DTD SVG 1.1//EN" "http://www.w3.org/Graphics/SVG/1.1/DTD/svg11.dtd">
<svg version="1.1" id="Layer_1" xmlns="http://www.w3.org/2000/svg" xmlns:xlink="http://www.w3.org/1999/xlink" x="0px" y="0px"
	 width="595.281px" height="841.891px" viewBox="0 0 595.281 841.891" enable-background="new 0 0 595.281 841.891"
	 xml:space="preserve">
<g id="watermark">
	<g>
		<path fill="#8C8C8C" d="M239.647,522.049l-1.926-5.563h-0.035c0.018,0.216,0.033,0.428,0.045,0.64
			c0.012,0.185,0.021,0.375,0.027,0.576c0.008,0.201,0.012,0.386,0.012,0.551v3.799h-0.748v-6.355h1.199l1.79,5.183h0.026
			l1.799-5.183h1.2v6.354h-0.808v-3.854c0-0.149,0.003-0.323,0.01-0.517c0.006-0.194,0.012-0.38,0.021-0.557
			c0.012-0.207,0.021-0.415,0.03-0.626h-0.035l-1.943,5.555h-0.664V522.049z"/>
		<path fill="#8C8C8C" d="M247.349,522.049l-0.16-0.661h-0.035c-0.096,0.131-0.191,0.243-0.287,0.338
			c-0.095,0.094-0.199,0.171-0.313,0.23c-0.113,0.063-0.24,0.106-0.379,0.137c-0.139,0.027-0.299,0.042-0.481,0.042
			c-0.2,0-0.384-0.028-0.552-0.084c-0.168-0.058-0.314-0.146-0.438-0.262c-0.122-0.116-0.219-0.265-0.289-0.442
			c-0.068-0.179-0.104-0.39-0.104-0.633c0-0.477,0.168-0.841,0.502-1.096c0.335-0.255,0.845-0.394,1.527-0.417l0.8-0.029
			l-0.001-0.302c0-0.193-0.02-0.355-0.063-0.485c-0.041-0.13-0.103-0.235-0.183-0.315s-0.179-0.137-0.295-0.172
			c-0.116-0.035-0.251-0.052-0.402-0.052c-0.241,0-0.464,0.034-0.671,0.104s-0.406,0.153-0.598,0.252l-0.279-0.596
			c0.215-0.116,0.453-0.215,0.717-0.296c0.264-0.081,0.54-0.121,0.83-0.121c0.295,0,0.551,0.03,0.767,0.089
			c0.216,0.061,0.395,0.153,0.535,0.282c0.142,0.129,0.247,0.294,0.316,0.494c0.069,0.198,0.104,0.44,0.104,0.726v3.269
			L247.349,522.049L247.349,522.049z M245.897,521.496c0.178,0,0.341-0.027,0.491-0.084c0.15-0.055,0.281-0.138,0.392-0.249
			c0.109-0.11,0.195-0.252,0.258-0.422c0.062-0.17,0.093-0.369,0.093-0.598l-0.001-0.43l-0.621,0.03
			c-0.26,0.012-0.479,0.04-0.656,0.086c-0.176,0.047-0.316,0.111-0.424,0.193c-0.105,0.083-0.182,0.183-0.228,0.3
			c-0.046,0.116-0.069,0.249-0.069,0.397c0,0.267,0.07,0.462,0.211,0.586C245.483,521.434,245.669,521.496,245.897,521.496z"/>
		<path fill="#8C8C8C" d="M252.329,521.409h-0.035c-0.063,0.099-0.139,0.191-0.223,0.28c-0.086,0.088-0.185,0.166-0.297,0.232
			c-0.111,0.065-0.236,0.119-0.375,0.155c-0.14,0.038-0.296,0.058-0.471,0.058c-0.27,0-0.516-0.053-0.738-0.156
			s-0.415-0.26-0.574-0.468c-0.159-0.207-0.282-0.464-0.369-0.771c-0.086-0.309-0.13-0.664-0.13-1.069
			c0-0.409,0.044-0.769,0.13-1.076c0.087-0.31,0.21-0.567,0.369-0.776c0.16-0.208,0.351-0.365,0.574-0.471
			c0.223-0.106,0.469-0.158,0.738-0.158c0.172,0,0.327,0.018,0.467,0.056c0.139,0.037,0.264,0.088,0.375,0.152
			c0.112,0.063,0.211,0.138,0.298,0.221c0.087,0.084,0.163,0.173,0.226,0.267h0.053c-0.01-0.1-0.018-0.193-0.026-0.283
			c-0.007-0.075-0.012-0.152-0.018-0.233c-0.005-0.079-0.009-0.143-0.009-0.188v-1.893h0.791v6.763h-0.639L252.329,521.409z
			 M251.081,521.478c0.221,0,0.406-0.032,0.559-0.1c0.152-0.066,0.275-0.168,0.369-0.305c0.094-0.137,0.164-0.307,0.209-0.512
			c0.045-0.204,0.07-0.442,0.076-0.715v-0.178c0-0.292-0.02-0.553-0.059-0.78c-0.039-0.229-0.105-0.418-0.199-0.574
			c-0.094-0.154-0.219-0.271-0.377-0.352c-0.156-0.079-0.352-0.119-0.586-0.119c-0.391,0-0.68,0.158-0.862,0.474
			c-0.185,0.316-0.276,0.771-0.276,1.36c0,0.604,0.092,1.057,0.276,1.354C250.394,521.33,250.685,521.478,251.081,521.478z"/>
		<path fill="#8C8C8C" d="M256.484,522.135c-0.318,0-0.61-0.054-0.874-0.161c-0.263-0.106-0.49-0.263-0.68-0.469
			s-0.338-0.462-0.441-0.766c-0.105-0.305-0.156-0.651-0.156-1.044c0-0.394,0.048-0.745,0.143-1.056
			c0.097-0.311,0.23-0.573,0.405-0.788c0.174-0.216,0.382-0.381,0.624-0.493c0.24-0.113,0.509-0.17,0.801-0.17
			c0.287,0,0.545,0.051,0.773,0.154c0.229,0.103,0.424,0.248,0.584,0.435c0.158,0.188,0.281,0.411,0.367,0.674
			c0.084,0.263,0.127,0.553,0.127,0.871v0.491h-3.008c0.016,0.559,0.133,0.971,0.354,1.234c0.223,0.264,0.551,0.396,0.988,0.396
			c0.149,0,0.285-0.007,0.412-0.021c0.126-0.016,0.248-0.035,0.364-0.063c0.118-0.027,0.231-0.062,0.342-0.104
			c0.11-0.043,0.222-0.09,0.335-0.143v0.704c-0.117,0.055-0.23,0.103-0.342,0.144s-0.227,0.073-0.344,0.101
			c-0.117,0.026-0.239,0.045-0.365,0.057C256.769,522.129,256.632,522.135,256.484,522.135z M256.289,517.846
			c-0.33,0-0.592,0.112-0.784,0.339c-0.192,0.226-0.305,0.555-0.336,0.986h2.138c0-0.197-0.019-0.378-0.058-0.541
			c-0.039-0.164-0.101-0.305-0.184-0.419c-0.084-0.115-0.188-0.206-0.315-0.271C256.621,517.878,256.47,517.846,256.289,517.846z"/>
		<path fill="#8C8C8C" d="M265.298,522.049l-0.73-2.679c-0.012-0.052-0.025-0.11-0.044-0.176c-0.017-0.064-0.034-0.135-0.051-0.207
			c-0.018-0.072-0.036-0.146-0.055-0.221s-0.036-0.15-0.054-0.222c-0.041-0.168-0.083-0.343-0.126-0.521h-0.026
			c-0.04,0.183-0.08,0.357-0.116,0.526c-0.032,0.145-0.066,0.293-0.103,0.446c-0.037,0.153-0.07,0.283-0.103,0.392l-0.749,2.66
			h-0.917l-1.222-4.772h0.831l0.569,2.539c0.029,0.13,0.059,0.271,0.087,0.423c0.028,0.152,0.056,0.304,0.082,0.452
			c0.026,0.149,0.05,0.289,0.069,0.421c0.021,0.132,0.037,0.24,0.049,0.324h0.025c0.016-0.076,0.035-0.177,0.059-0.303
			c0.025-0.126,0.053-0.261,0.084-0.4c0.031-0.14,0.061-0.279,0.092-0.416c0.033-0.138,0.063-0.254,0.092-0.351l0.778-2.689h0.852
			l0.747,2.689c0.027,0.098,0.057,0.215,0.09,0.348c0.033,0.134,0.066,0.269,0.098,0.407c0.031,0.138,0.061,0.27,0.087,0.396
			c0.025,0.127,0.045,0.233,0.056,0.317h0.025c0.01-0.076,0.023-0.177,0.042-0.303s0.042-0.265,0.067-0.415
			c0.026-0.15,0.055-0.307,0.084-0.464c0.031-0.157,0.063-0.306,0.094-0.44l0.596-2.538h0.809l-1.234,4.771h-0.934V522.049
			L265.298,522.049z"/>
		<path fill="#8C8C8C" d="M268.253,515.985c0-0.174,0.045-0.3,0.133-0.378c0.088-0.078,0.197-0.118,0.328-0.118
			c0.063,0,0.123,0.011,0.182,0.029c0.055,0.019,0.105,0.049,0.147,0.089c0.042,0.041,0.075,0.091,0.101,0.153
			c0.023,0.063,0.036,0.137,0.036,0.225c0,0.168-0.046,0.292-0.137,0.376c-0.091,0.083-0.2,0.123-0.328,0.123
			c-0.13,0-0.239-0.04-0.328-0.121C268.299,516.282,268.253,516.155,268.253,515.985z M269.105,522.049h-0.79l-0.001-4.772h0.79
			L269.105,522.049z"/>
		<path fill="#8C8C8C" d="M272.062,521.485c0.052,0,0.111-0.002,0.176-0.009c0.065-0.005,0.128-0.013,0.189-0.021
			c0.061-0.009,0.116-0.019,0.166-0.029c0.051-0.012,0.09-0.021,0.117-0.029v0.599c-0.038,0.019-0.086,0.035-0.145,0.054
			c-0.059,0.017-0.121,0.031-0.191,0.045c-0.069,0.014-0.142,0.022-0.217,0.029c-0.075,0.01-0.149,0.013-0.221,0.013
			c-0.18,0-0.348-0.022-0.5-0.069c-0.154-0.047-0.285-0.126-0.397-0.239c-0.112-0.112-0.199-0.266-0.263-0.459
			c-0.064-0.19-0.096-0.435-0.096-0.727v-2.769h-0.676v-0.354l0.674-0.339l0.34-0.999h0.455v1.095h1.199v0.596h-1.199v2.77
			c0,0.28,0.046,0.492,0.137,0.634C271.702,521.416,271.853,521.485,272.062,521.485z"/>
		<path fill="#8C8C8C" d="M276.615,522.049v-3.073c0-0.377-0.076-0.659-0.228-0.849c-0.152-0.188-0.391-0.281-0.716-0.281
			c-0.234,0-0.432,0.037-0.591,0.111c-0.159,0.076-0.287,0.188-0.385,0.336c-0.096,0.147-0.166,0.328-0.208,0.544
			c-0.042,0.214-0.063,0.46-0.063,0.738v2.474h-0.791v-6.763h0.791v2.009l-0.035,0.625h0.045c0.072-0.124,0.158-0.231,0.258-0.323
			c0.1-0.091,0.209-0.167,0.328-0.229c0.119-0.061,0.245-0.105,0.379-0.135c0.133-0.029,0.269-0.044,0.408-0.044
			c0.529,0,0.93,0.139,1.197,0.415c0.268,0.277,0.402,0.72,0.402,1.328v3.116H276.615L276.615,522.049z"/>
	</g>
	<g>
		<path fill="#8C8C8C" d="M298.376,522.032h-1.327v-6.354h3.643v1.104h-2.316v1.639h2.156v1.101h-2.156V522.032L298.376,522.032z"/>
		<path fill="#8C8C8C" d="M304.41,517.082c0.035,0,0.074,0.001,0.115,0.002c0.043,0.002,0.082,0.005,0.119,0.01
			c0.041,0.004,0.076,0.009,0.111,0.013c0.031,0.005,0.059,0.01,0.074,0.017v1.243c-0.021-0.007-0.055-0.013-0.094-0.018
			c-0.041-0.006-0.084-0.011-0.129-0.017c-0.045-0.004-0.09-0.007-0.133-0.009c-0.045-0.002-0.08-0.002-0.109-0.002
			c-0.17,0-0.326,0.021-0.471,0.065c-0.145,0.043-0.268,0.112-0.369,0.21c-0.104,0.098-0.184,0.225-0.24,0.384
			c-0.057,0.157-0.084,0.351-0.084,0.58v2.474h-1.326v-4.859h1.004l0.195,0.729h0.066c0.068-0.124,0.145-0.237,0.225-0.339
			c0.082-0.102,0.172-0.188,0.271-0.259c0.102-0.071,0.213-0.126,0.34-0.165C304.103,517.102,304.248,517.082,304.41,517.082z"/>
		<path fill="#8C8C8C" d="M305.726,515.919c0-0.125,0.02-0.229,0.057-0.313s0.09-0.149,0.154-0.2c0.064-0.05,0.143-0.085,0.23-0.105
			c0.088-0.021,0.182-0.03,0.279-0.03s0.189,0.011,0.277,0.03c0.088,0.021,0.164,0.056,0.23,0.105
			c0.063,0.051,0.115,0.117,0.156,0.2c0.039,0.083,0.059,0.187,0.059,0.313c0,0.12-0.02,0.224-0.059,0.309
			c-0.041,0.083-0.094,0.151-0.156,0.202c-0.066,0.05-0.143,0.087-0.23,0.109c-0.086,0.021-0.18,0.03-0.277,0.03
			s-0.191-0.011-0.279-0.03c-0.09-0.021-0.166-0.06-0.23-0.109s-0.117-0.118-0.154-0.202
			C305.746,516.142,305.726,516.039,305.726,515.919z M307.109,522.032h-1.324l-0.002-4.857h1.326V522.032z"/>
		<path fill="#8C8C8C" d="M310.517,521.062c0.131,0,0.254-0.015,0.371-0.043s0.238-0.065,0.359-0.108v0.986
			c-0.125,0.063-0.279,0.116-0.463,0.158c-0.186,0.041-0.385,0.063-0.604,0.063c-0.211,0-0.408-0.023-0.59-0.073
			c-0.184-0.05-0.342-0.137-0.475-0.259s-0.238-0.288-0.316-0.494c-0.076-0.208-0.115-0.47-0.115-0.781v-2.34h-0.635v-0.563
			l0.73-0.442l0.385-1.025h0.846v1.034h1.184v0.996h-1.184v2.342c0,0.188,0.047,0.327,0.141,0.417S310.367,521.062,310.517,521.062z
			"/>
		<path fill="#8C8C8C" d="M315.39,522.032h-3.572v-0.782l1.984-3.063h-1.85v-1.012h3.354v0.859l-1.92,2.985h2.004V522.032z"/>
		<path fill="#8C8C8C" d="M316.33,515.919c0-0.125,0.018-0.229,0.057-0.313c0.037-0.083,0.088-0.149,0.154-0.2
			c0.064-0.05,0.141-0.085,0.229-0.105c0.09-0.021,0.184-0.03,0.281-0.03c0.1,0,0.191,0.011,0.279,0.03
			c0.086,0.021,0.162,0.056,0.227,0.105c0.066,0.05,0.117,0.117,0.158,0.2c0.039,0.083,0.059,0.187,0.059,0.313
			c0,0.12-0.02,0.224-0.059,0.309c-0.041,0.083-0.092,0.151-0.158,0.202c-0.064,0.05-0.141,0.087-0.227,0.109
			c-0.088,0.021-0.182,0.03-0.279,0.03s-0.191-0.011-0.281-0.03c-0.088-0.021-0.164-0.06-0.229-0.109
			c-0.066-0.05-0.117-0.118-0.154-0.202C316.349,516.142,316.33,516.039,316.33,515.919z M317.712,522.032h-1.326v-4.857h1.326
			V522.032L317.712,522.032z"/>
		<path fill="#8C8C8C" d="M323.363,522.032h-1.326v-2.839c0-0.35-0.051-0.613-0.158-0.788c-0.104-0.176-0.273-0.263-0.506-0.263
			c-0.174,0-0.318,0.035-0.434,0.104c-0.117,0.07-0.209,0.172-0.277,0.31c-0.066,0.137-0.115,0.305-0.146,0.505
			c-0.029,0.199-0.043,0.429-0.043,0.686v2.286h-1.324v-4.857h1.012l0.178,0.621h0.074c0.07-0.124,0.154-0.232,0.254-0.322
			c0.102-0.089,0.211-0.163,0.328-0.222c0.119-0.058,0.246-0.101,0.379-0.128s0.27-0.041,0.408-0.041
			c0.238,0,0.455,0.033,0.648,0.103c0.193,0.068,0.361,0.175,0.5,0.318c0.139,0.146,0.246,0.329,0.322,0.555
			c0.074,0.225,0.111,0.493,0.111,0.807V522.032L323.363,522.032z"/>
		<path fill="#8C8C8C" d="M328.792,517.182v0.721l-0.709,0.222c0.059,0.1,0.098,0.201,0.121,0.308
			c0.021,0.105,0.035,0.219,0.035,0.342c0,0.246-0.039,0.471-0.117,0.676c-0.078,0.204-0.193,0.379-0.348,0.523
			c-0.154,0.146-0.348,0.257-0.578,0.337c-0.232,0.079-0.502,0.119-0.811,0.119c-0.064,0-0.139-0.004-0.217-0.012
			s-0.137-0.016-0.174-0.023c-0.059,0.05-0.104,0.102-0.137,0.154c-0.033,0.054-0.051,0.116-0.051,0.192
			c0,0.062,0.02,0.109,0.057,0.146c0.039,0.037,0.088,0.064,0.148,0.086s0.131,0.037,0.213,0.045
			c0.082,0.007,0.166,0.011,0.252,0.011h0.756c0.234,0,0.445,0.026,0.631,0.081c0.186,0.054,0.342,0.135,0.471,0.245
			s0.23,0.25,0.299,0.419c0.07,0.17,0.105,0.372,0.105,0.606c0,0.274-0.055,0.522-0.164,0.745c-0.111,0.224-0.275,0.41-0.494,0.564
			c-0.219,0.155-0.49,0.274-0.816,0.356c-0.322,0.083-0.697,0.124-1.125,0.124c-0.328,0-0.617-0.031-0.863-0.095
			c-0.248-0.062-0.451-0.15-0.617-0.27c-0.166-0.117-0.289-0.259-0.371-0.423c-0.084-0.165-0.125-0.354-0.125-0.563
			c0-0.177,0.031-0.329,0.092-0.46c0.063-0.13,0.145-0.242,0.244-0.335c0.102-0.092,0.217-0.168,0.346-0.226
			c0.129-0.059,0.264-0.104,0.396-0.136c-0.061-0.025-0.119-0.063-0.18-0.107c-0.061-0.047-0.113-0.101-0.16-0.161
			c-0.049-0.061-0.088-0.128-0.117-0.202c-0.031-0.073-0.047-0.151-0.047-0.231c0-0.094,0.014-0.178,0.041-0.253
			c0.027-0.074,0.068-0.146,0.119-0.211c0.053-0.063,0.117-0.126,0.195-0.184c0.08-0.06,0.168-0.118,0.266-0.179
			c-0.254-0.11-0.457-0.287-0.605-0.53c-0.148-0.244-0.225-0.53-0.225-0.861c0-0.26,0.041-0.493,0.121-0.699
			c0.082-0.206,0.199-0.38,0.355-0.522c0.158-0.145,0.352-0.252,0.584-0.328c0.232-0.075,0.498-0.112,0.801-0.112
			c0.057,0,0.121,0.003,0.195,0.012c0.07,0.007,0.143,0.016,0.215,0.024c0.07,0.01,0.137,0.021,0.197,0.033
			c0.059,0.012,0.109,0.021,0.145,0.03H328.792L328.792,517.182z M325.316,522.719c0,0.073,0.016,0.144,0.047,0.211
			c0.027,0.067,0.08,0.128,0.148,0.181c0.068,0.052,0.16,0.093,0.273,0.124c0.113,0.03,0.252,0.046,0.416,0.046
			c0.453,0,0.793-0.063,1.021-0.19c0.229-0.127,0.344-0.298,0.344-0.515c0-0.182-0.07-0.304-0.215-0.363
			c-0.141-0.062-0.359-0.092-0.658-0.092h-0.613c-0.08,0-0.162,0.01-0.252,0.027c-0.09,0.019-0.172,0.052-0.248,0.1
			c-0.076,0.046-0.139,0.106-0.189,0.184C325.341,522.507,325.316,522.603,325.316,522.719z M325.794,518.764
			c0,0.264,0.049,0.468,0.148,0.612c0.098,0.146,0.248,0.218,0.445,0.218c0.209,0,0.359-0.072,0.451-0.218
			c0.094-0.146,0.141-0.35,0.141-0.612c0-0.261-0.047-0.468-0.137-0.621c-0.092-0.153-0.244-0.23-0.455-0.23
			C325.992,517.912,325.794,518.195,325.794,518.764z"/>
		<path fill="#8C8C8C" d="M329.542,521.41c0-0.137,0.018-0.251,0.057-0.346c0.039-0.094,0.096-0.171,0.164-0.229
			c0.07-0.059,0.15-0.101,0.242-0.125c0.094-0.026,0.193-0.04,0.301-0.04c0.102,0,0.197,0.014,0.289,0.04
			c0.092,0.024,0.172,0.066,0.242,0.125c0.068,0.058,0.123,0.135,0.164,0.229s0.061,0.209,0.061,0.346
			c0,0.13-0.02,0.242-0.061,0.335c-0.041,0.094-0.096,0.169-0.164,0.23c-0.07,0.061-0.15,0.104-0.242,0.132
			s-0.188,0.042-0.289,0.042c-0.107,0-0.207-0.014-0.301-0.042c-0.092-0.027-0.172-0.071-0.242-0.132
			c-0.068-0.063-0.125-0.138-0.164-0.23C329.56,521.653,329.542,521.541,329.542,521.41z"/>
		<path fill="#8C8C8C" d="M336.5,519.594c0,0.405-0.051,0.765-0.154,1.078c-0.102,0.313-0.25,0.577-0.443,0.791
			c-0.191,0.215-0.428,0.377-0.703,0.487c-0.277,0.112-0.588,0.167-0.934,0.167c-0.32,0-0.617-0.055-0.885-0.167
			c-0.27-0.111-0.504-0.273-0.699-0.487c-0.195-0.216-0.348-0.479-0.457-0.791c-0.111-0.313-0.166-0.673-0.166-1.078
			c0-0.402,0.051-0.761,0.154-1.073s0.25-0.576,0.443-0.789c0.191-0.213,0.426-0.374,0.701-0.484
			c0.275-0.109,0.588-0.164,0.936-0.164c0.32,0,0.617,0.055,0.887,0.164c0.27,0.11,0.502,0.272,0.695,0.484
			c0.197,0.214,0.35,0.477,0.459,0.789C336.445,518.834,336.5,519.19,336.5,519.594z M333.414,519.594
			c0,0.483,0.068,0.849,0.205,1.093c0.137,0.246,0.357,0.367,0.666,0.367c0.303,0,0.521-0.122,0.66-0.369
			c0.137-0.247,0.203-0.61,0.203-1.091c0-0.483-0.066-0.847-0.203-1.084c-0.139-0.239-0.359-0.358-0.67-0.358
			c-0.307,0-0.523,0.119-0.658,0.358C333.482,518.749,333.414,519.109,333.414,519.594z"/>
		<path fill="#8C8C8C" d="M340.22,517.082c0.035,0,0.074,0.001,0.117,0.002c0.041,0.002,0.082,0.005,0.119,0.01
			c0.041,0.004,0.076,0.009,0.111,0.013c0.031,0.005,0.057,0.01,0.074,0.017v1.243c-0.021-0.007-0.057-0.013-0.096-0.018
			c-0.041-0.006-0.084-0.011-0.129-0.017c-0.045-0.004-0.088-0.007-0.133-0.009c-0.043-0.002-0.08-0.002-0.107-0.002
			c-0.172,0-0.328,0.021-0.473,0.065c-0.145,0.043-0.266,0.112-0.369,0.21s-0.184,0.225-0.24,0.384
			c-0.055,0.157-0.084,0.351-0.084,0.58v2.474h-1.324l-0.002-4.859h1.006l0.193,0.729h0.066c0.07-0.124,0.145-0.237,0.227-0.339
			c0.08-0.102,0.172-0.188,0.271-0.259s0.213-0.126,0.34-0.165C339.914,517.102,340.058,517.082,340.22,517.082z"/>
		<path fill="#8C8C8C" d="M345.529,517.182v0.721l-0.709,0.222c0.057,0.1,0.098,0.201,0.121,0.308
			c0.021,0.105,0.033,0.219,0.033,0.342c0,0.246-0.039,0.471-0.115,0.676c-0.078,0.204-0.193,0.379-0.35,0.523
			c-0.152,0.146-0.346,0.257-0.578,0.337c-0.23,0.079-0.5,0.119-0.809,0.119c-0.066,0-0.139-0.004-0.217-0.012
			s-0.137-0.016-0.174-0.023c-0.059,0.05-0.104,0.102-0.137,0.154c-0.035,0.054-0.051,0.116-0.051,0.192
			c0,0.062,0.02,0.109,0.057,0.146s0.086,0.064,0.148,0.086c0.061,0.021,0.131,0.037,0.213,0.045
			c0.08,0.007,0.164,0.011,0.252,0.011h0.756c0.234,0,0.445,0.026,0.631,0.081c0.184,0.054,0.342,0.135,0.471,0.245
			s0.229,0.25,0.299,0.419c0.068,0.17,0.105,0.372,0.105,0.606c0,0.274-0.057,0.522-0.166,0.745
			c-0.109,0.224-0.273,0.41-0.492,0.564c-0.221,0.155-0.49,0.274-0.816,0.356c-0.324,0.083-0.699,0.124-1.125,0.124
			c-0.33,0-0.617-0.031-0.865-0.095c-0.246-0.062-0.451-0.15-0.615-0.27c-0.166-0.117-0.289-0.259-0.371-0.423
			c-0.084-0.165-0.125-0.354-0.125-0.563c0-0.177,0.029-0.329,0.092-0.46c0.061-0.13,0.143-0.242,0.244-0.335
			c0.1-0.092,0.217-0.168,0.346-0.226c0.129-0.059,0.262-0.104,0.396-0.136c-0.061-0.025-0.121-0.063-0.182-0.107
			c-0.059-0.047-0.111-0.101-0.16-0.161c-0.047-0.061-0.086-0.128-0.115-0.202c-0.031-0.073-0.047-0.151-0.047-0.231
			c0-0.094,0.014-0.178,0.041-0.253c0.027-0.074,0.068-0.146,0.119-0.211c0.053-0.063,0.117-0.126,0.195-0.184
			c0.078-0.06,0.166-0.118,0.266-0.179c-0.254-0.11-0.457-0.287-0.605-0.53c-0.15-0.244-0.225-0.53-0.225-0.861
			c0-0.26,0.041-0.493,0.121-0.699c0.082-0.206,0.199-0.38,0.355-0.522c0.156-0.145,0.352-0.252,0.584-0.328
			c0.23-0.075,0.498-0.112,0.799-0.112c0.059,0,0.123,0.003,0.195,0.012c0.072,0.007,0.145,0.016,0.217,0.024
			c0.07,0.01,0.137,0.021,0.197,0.033c0.059,0.012,0.107,0.021,0.143,0.03H345.529L345.529,517.182z M342.052,522.719
			c0,0.073,0.016,0.144,0.045,0.211c0.031,0.067,0.082,0.128,0.15,0.181c0.07,0.052,0.162,0.093,0.273,0.124
			c0.113,0.03,0.252,0.046,0.418,0.046c0.451,0,0.793-0.063,1.02-0.19c0.23-0.127,0.344-0.298,0.344-0.515
			c0-0.182-0.07-0.304-0.213-0.363c-0.143-0.061-0.363-0.092-0.66-0.092h-0.611c-0.08,0-0.164,0.01-0.252,0.027
			c-0.092,0.02-0.176,0.052-0.248,0.1c-0.076,0.046-0.141,0.106-0.189,0.184C342.078,522.509,342.052,522.603,342.052,522.719z
			 M342.529,518.764c0,0.264,0.051,0.468,0.148,0.612c0.1,0.146,0.248,0.218,0.447,0.218c0.209,0,0.359-0.072,0.451-0.218
			c0.094-0.146,0.139-0.35,0.139-0.612c0-0.261-0.045-0.468-0.137-0.621c-0.09-0.153-0.242-0.23-0.453-0.23
			C342.728,517.912,342.529,518.195,342.529,518.764z"/>
	</g>
	<g>
		<path fill="#8C8C8C" d="M291.122,514.302h-8.145c-0.532,0-0.965,0.432-0.965,0.964v8.146c0,0.531,0.433,0.963,0.965,0.963h5.551
			l3.557-3.558v-5.552C292.087,514.733,291.654,514.302,291.122,514.302z M289.445,518.03h-1.075v0.402h1.075v1.6h-2.196v2.059
			h-2.573l0.001-4.67l0.988-0.99h3.779L289.445,518.03L289.445,518.03z"/>
	</g>
</g>
<g transform="translate(0,11.2)">
	<g id="breadboardbreadboard">
		<g>
			<g>
				<path fill="#167492" d="M335.458,489.379h32.225l3.693-3.985V306.105H223.344v183.275h5.033l7.135,6.925h93.358L335.458,489.379
					z M360.507,348.902c0-2.523,2.049-4.574,4.574-4.574c2.523,0,4.572,2.051,4.572,4.575s-2.049,4.574-4.572,4.574
					C362.556,353.477,360.507,351.427,360.507,348.902z M325.558,489.631c0,1.621-1.316,2.938-2.938,2.938
					c-1.623,0-2.938-1.313-2.938-2.938s1.313-2.938,2.938-2.938C324.24,486.693,325.558,488.009,325.558,489.631z M240.629,490.134
					c0-2.362,1.916-4.277,4.275-4.277c2.367,0,4.281,1.915,4.281,4.277c0,2.364-1.914,4.275-4.281,4.275
					C242.545,494.412,240.629,492.498,240.629,490.134z"/>
			</g>
		</g>
		<path fill="#05819F" d="M302.603,384.502c1.004,0,1.83-0.736,1.984-1.697h0.029v-6.859c0-1.11-0.902-2.015-2.016-2.015
			c-1.111,0-2.016,0.901-2.016,2.015v6.859h0.033C300.771,383.764,301.597,384.502,302.603,384.502z"/>
		<path fill="#05819F" d="M308.656,384.502c1.004,0,1.828-0.736,1.98-1.697h0.031v-6.859c0-1.11-0.902-2.015-2.014-2.015
			c-1.113,0-2.016,0.901-2.016,2.015v6.859h0.031C306.824,383.764,307.652,384.502,308.656,384.502z"/>
		<path fill="#05819F" d="M314.708,384.502c1.004,0,1.83-0.736,1.982-1.697h0.031v-6.859c0-1.11-0.902-2.015-2.016-2.015
			c-1.111,0-2.014,0.901-2.014,2.015v6.859h0.029C312.878,383.764,313.705,384.502,314.708,384.502z"/>
		<path fill="#05819F" d="M307.498,411.959c1.004,0,1.83-0.735,1.98-1.699h0.031v-6.857c0-1.11-0.9-2.016-2.014-2.016
			s-2.014,0.902-2.014,2.016v6.857h0.029C305.666,411.222,306.492,411.959,307.498,411.959z"/>
		<path fill="#05819F" d="M296.955,428.715c3.033,0,5.529-2.229,5.988-5.133h0.096V406.06c0-3.358-2.725-6.082-6.083-6.082
			c-3.36,0-6.083,2.724-6.083,6.082v17.521h0.094C291.427,426.487,293.923,428.715,296.955,428.715z"/>
		<path fill="#05819F" d="M307.498,426.56c1.004,0,1.83-0.735,1.98-1.696h0.031v-6.859c0-1.11-0.9-2.015-2.014-2.015
			s-2.014,0.901-2.014,2.015v6.859h0.029C305.666,425.822,306.492,426.56,307.498,426.56z"/>
		<path fill="#05819F" d="M307.498,444.018c1.004,0,1.83-0.735,1.98-1.696h0.031v-6.859c0-1.112-0.9-2.016-2.014-2.016
			s-2.014,0.9-2.014,2.016v6.858h0.029C305.666,443.279,306.492,444.018,307.498,444.018z"/>
		<path fill="#05819F" d="M299.757,444.018c1.006,0,1.832-0.735,1.984-1.696h0.029v-6.859c0-1.112-0.9-2.016-2.014-2.016
			c-1.115,0-2.014,0.9-2.014,2.016v6.858h0.03C297.927,443.279,298.753,444.018,299.757,444.018z"/>
		<path fill="#05819F" d="M292.02,444.018c1.005,0,1.831-0.735,1.981-1.696h0.03v-6.859c0-1.112-0.899-2.016-2.014-2.016
			c-1.115,0-2.016,0.9-2.016,2.016v6.858h0.035C290.188,443.279,291.015,444.018,292.02,444.018z"/>
		<path fill="#05819F" d="M304.06,458.5c1.006,0,1.832-0.733,1.982-1.696h0.031v-6.858c0-1.11-0.9-2.015-2.016-2.015
			c-1.113,0-2.014,0.901-2.014,2.015v6.858h0.031C302.23,457.765,303.056,458.5,304.06,458.5z"/>
		<path fill="#05819F" d="M291.584,458.5c1.004,0,1.83-0.733,1.981-1.696h0.029v-6.858c0-1.11-0.9-2.015-2.012-2.015
			c-1.113,0-2.018,0.901-2.018,2.015v6.858h0.031C289.752,457.765,290.58,458.5,291.584,458.5z"/>
		<path fill="#05819F" d="M304.06,462.274c1.006,0,1.832,0.734,1.982,1.697h0.031v6.856c0,1.111-0.9,2.015-2.016,2.015
			c-1.113,0-2.014-0.9-2.014-2.015v-6.856h0.031C302.23,463.011,303.056,462.274,304.06,462.274z"/>
		<path fill="#05819F" d="M291.583,462.274c1.004,0,1.83,0.734,1.981,1.697h0.029v6.856c0,1.111-0.9,2.015-2.012,2.015
			c-1.113,0-2.018-0.9-2.018-2.015v-6.856h0.031C289.751,463.011,290.58,462.274,291.583,462.274z"/>
		<path fill="#05819F" d="M290.498,384.502c1.004,0,1.828-0.736,1.979-1.697h0.031v-6.859c0-1.11-0.9-2.015-2.014-2.015
			c-1.114,0-2.018,0.901-2.018,2.015v6.859h0.034C288.666,383.764,289.489,384.502,290.498,384.502z"/>
		<path fill="#05819F" d="M344.976,384.502c1.004,0,1.828-0.736,1.98-1.697h0.033v-6.859c0-1.11-0.9-2.015-2.016-2.015
			c-1.113,0-2.016,0.901-2.016,2.015v6.859h0.035C343.146,383.764,343.97,384.502,344.976,384.502z"/>
		<path fill="#05819F" d="M349.476,351.028c1.004,0,1.828-0.734,1.98-1.695h0.031v-6.86c0-1.111-0.9-2.015-2.014-2.015
			c-1.111,0-2.016,0.9-2.016,2.015v6.859h0.033C347.644,350.29,348.468,351.028,349.476,351.028z"/>
		<path fill="#05819F" d="M349.476,363.806c1.004,0,1.828-0.736,1.98-1.697h0.031v-6.857c0-1.112-0.9-2.017-2.014-2.017
			c-1.111,0-2.016,0.901-2.016,2.017v6.857h0.033C347.644,363.068,348.468,363.806,349.476,363.806z"/>
		<path fill="#05819F" d="M332.869,384.502c1.004,0,1.828-0.736,1.98-1.697h0.031v-6.859c0-1.11-0.9-2.015-2.014-2.015
			s-2.016,0.901-2.016,2.015v6.859h0.031C331.039,383.764,331.863,384.502,332.869,384.502z"/>
		<path fill="#05819F" d="M270.707,360.511c1.004,0,1.83-0.734,1.979-1.696h0.033v-6.858c0-1.113-0.902-2.016-2.014-2.016
			c-1.113,0-2.018,0.899-2.018,2.016v6.857h0.032C268.877,359.774,269.703,360.511,270.707,360.511z"/>
		<path fill="#05819F" d="M278.984,360.511c1.005,0,1.829-0.734,1.981-1.696h0.031v-6.858c0-1.113-0.9-2.016-2.015-2.016
			c-1.113,0-2.016,0.899-2.016,2.016v6.857h0.031C277.153,359.774,277.979,360.511,278.984,360.511z"/>
		<path fill="#05819F" d="M301.742,343.324c0,1.007,0.734,1.831,1.697,1.981v0.034h4.848c1.109,0,2.016-0.903,2.016-2.019
			c0-1.109-0.904-2.015-2.016-2.015h-4.848v0.031C302.478,341.496,301.742,342.32,301.742,343.324z"/>
		<path fill="#05819F" d="M301.742,350.709c0,1.005,0.734,1.832,1.697,1.98v0.031h4.848c1.109,0,2.016-0.9,2.016-2.015
			c0-1.111-0.904-2.017-2.016-2.017h-4.848v0.03C302.478,348.881,301.742,349.706,301.742,350.709z"/>
		<path fill="#05819F" d="M301.742,358.094c0,1.005,0.734,1.831,1.697,1.979v0.033h4.848c1.109,0,2.016-0.899,2.016-2.016
			c0-1.11-0.904-2.017-2.016-2.017h-4.848v0.032C302.478,356.266,301.742,357.091,301.742,358.094z"/>
		<path fill="#05819F" d="M301.742,365.479c0,1.005,0.734,1.832,1.697,1.982v0.03h4.848c1.109,0,2.016-0.9,2.016-2.016
			c0-1.111-0.904-2.015-2.016-2.015h-4.848v0.029C302.478,363.65,301.742,364.477,301.742,365.479z"/>
		<path fill="#05819F" d="M324.179,451.218c-1.004,0-1.832,0.735-1.982,1.698h-0.029v6.858c0,1.11,0.9,2.015,2.014,2.015
			c1.111,0,2.014-0.901,2.014-2.015v-6.858h-0.029C326.009,451.955,325.183,451.218,324.179,451.218z"/>
		<path fill="#05819F" d="M277.119,340.701c1.004,0,1.832-0.735,1.981-1.697h0.033v-6.858c0-1.114-0.901-2.017-2.018-2.017
			c-1.109,0-2.015,0.899-2.015,2.017v6.857h0.031C275.289,339.963,276.114,340.701,277.119,340.701z"/>
		<path fill="#05819F" d="M270.571,340.701c1.007,0,1.83-0.735,1.984-1.697h0.029v-6.858c0-1.114-0.898-2.017-2.016-2.017
			c-1.107,0-2.014,0.899-2.014,2.017v6.857h0.03C268.746,339.963,269.568,340.701,270.571,340.701z"/>
		<path fill="#05819F" d="M264.026,340.701c1.005,0,1.83-0.735,1.982-1.697h0.031v-6.858c0-1.114-0.902-2.017-2.016-2.017
			c-1.112,0-2.015,0.899-2.015,2.017v6.857h0.031C262.195,339.963,263.021,340.701,264.026,340.701z"/>
		<rect x="261.274" y="314.015" fill="#05819F" width="19.304" height="20.309"/>
		<rect x="263.626" y="310.49" fill="#05819F" width="14.602" height="5.036"/>
		<circle fill="#05819F" cx="365.298" cy="358.949" r="1.762"/>
		<g>
			<g>
				<path fill="#05819F" d="M369.744,358.95c0-2.457-1.99-4.448-4.445-4.448c-2.459,0-4.447,1.99-4.447,4.447
					c0,2.456,1.99,4.448,4.447,4.448C367.753,363.397,369.744,361.406,369.744,358.95z M361.314,358.949
					c0-2.201,1.783-3.985,3.984-3.985s3.986,1.785,3.986,3.986c0,2.202-1.785,3.985-3.986,3.985S361.314,361.151,361.314,358.949z"
					/>
			</g>
		</g>
		<circle fill="#05819F" cx="229.979" cy="313.094" r="1.763"/>
		<g>
			<g>
				<path fill="#05819F" d="M234.424,313.095c0-2.457-1.992-4.449-4.447-4.449c-2.457,0-4.447,1.992-4.447,4.449
					c0,2.454,1.99,4.447,4.447,4.447C232.432,317.542,234.424,315.551,234.424,313.095z M225.994,313.095
					c0-2.204,1.782-3.986,3.983-3.986s3.986,1.785,3.986,3.986s-1.784,3.984-3.986,3.984
					C227.776,317.08,225.994,315.296,225.994,313.095z"/>
			</g>
		</g>
		<circle fill="#05819F" cx="339.82" cy="481.155" r="1.762"/>
		<g>
			<g>
				<path fill="#05819F" d="M344.269,481.156c0-2.456-1.992-4.449-4.449-4.449c-2.455,0-4.443,1.993-4.443,4.449
					c0,2.453,1.99,4.448,4.443,4.448C342.275,485.604,344.269,483.612,344.269,481.156z M335.835,481.156
					c0-2.204,1.785-3.984,3.984-3.984c2.203,0,3.986,1.785,3.986,3.984c0,2.2-1.783,3.982-3.986,3.982
					C337.621,485.14,335.835,483.357,335.835,481.156z"/>
			</g>
		</g>
		<circle fill="#05819F" cx="346.535" cy="314.435" r="4.28"/>
		<circle fill="#05819F" cx="311.794" cy="314.435" r="4.28"/>
		<rect x="321.81" y="338.938" fill="#05819F" width="16.113" height="28.53"/>
		<rect x="253.32" y="345.512" fill="#05819F" width="7.974" height="17.538"/>
		<rect x="284.7" y="346.411" fill="#05819F" width="9.348" height="16.163"/>
		<rect x="257.373" y="385.344" fill="#05819F" width="21.481" height="96.842"/>
		<circle fill="#05819F" cx="245.458" cy="336.715" r="5.665"/>
		<circle fill="#05819F" cx="231.694" cy="329.33" r="5.664"/>
		<path fill="#05819F" d="M233.816,367.704c1.115,0.432,2.319,0.675,3.585,0.675c5.491,0,9.941-4.453,9.941-9.941
			c0-5.489-4.451-9.943-9.941-9.943c-2.573,0-4.913,0.986-6.678,2.594L233.816,367.704z"/>
		<path fill="#05819F" d="M233.816,390.914c1.115,0.432,2.319,0.675,3.585,0.675c5.491,0,9.941-4.453,9.941-9.941
			c0-5.493-4.451-9.941-9.941-9.941c-2.573,0-4.913,0.984-6.678,2.592L233.816,390.914z"/>
		<path fill="#8D8C8C" d="M326.816,384.502c1.004,0,1.828-0.736,1.98-1.697h0.031v-6.859c0-1.11-0.9-2.015-2.014-2.015
			c-1.111,0-2.016,0.901-2.016,2.015v6.859h0.033C324.984,383.764,325.81,384.502,326.816,384.502z"/>
		<rect x="325.242" y="377.454" fill="#FBBE12" width="3.211" height="3.647"/>
		<path fill="#8D8C8C" d="M338.921,384.502c1.004,0,1.83-0.736,1.982-1.697h0.029v-6.859c0-1.11-0.898-2.015-2.014-2.015
			c-1.113,0-2.016,0.901-2.016,2.015v6.859h0.031C337.091,383.764,337.917,384.502,338.921,384.502z"/>
		<rect x="337.347" y="377.454" fill="#FBBE12" width="3.211" height="3.647"/>
		<path fill="#8D8C8C" d="M324.179,474.653c1.004,0,1.83-0.736,1.982-1.697h0.031v-6.858c0-1.112-0.9-2.015-2.016-2.015
			c-1.111,0-2.014,0.899-2.014,2.015v6.858h0.031C322.351,473.912,323.177,474.653,324.179,474.653z"/>
		<rect x="322.605" y="467.604" fill="#FBBE12" width="3.211" height="3.647"/>
		<path fill="#8D8C8C" d="M320.761,384.502c1.004,0,1.83-0.736,1.984-1.697h0.029v-6.859c0-1.11-0.902-2.015-2.014-2.015
			c-1.113,0-2.016,0.901-2.016,2.015v6.859h0.031C318.931,383.764,319.757,384.502,320.761,384.502z"/>
		<rect x="319.189" y="377.454" fill="#FBBE12" width="3.209" height="3.647"/>
		<rect x="289.389" y="452.394" fill="#8D8C8C" width="16.991" height="16.614"/>
		<path fill="#404040" d="M303.992,468.634c-0.836,0-1.516-0.679-1.516-1.516c0-0.834,0.676-1.512,1.516-1.512
			c0.83,0,1.512,0.675,1.512,1.512C305.501,467.955,304.822,468.634,303.992,468.634z"/>
		<path fill="#404040" d="M303.992,455.918c-0.836,0-1.516-0.677-1.516-1.513c0-0.837,0.676-1.513,1.516-1.513
			c0.83,0,1.512,0.675,1.512,1.513C305.501,455.242,304.822,455.918,303.992,455.918z"/>
		<circle fill="#404040" cx="291.276" cy="454.407" r="1.511"/>
		<circle fill="#404040" cx="291.275" cy="467.121" r="1.511"/>
		<circle fill="#404040" cx="297.885" cy="460.387" r="4.909"/>
		<polygon fill="#404040" points="311.597,492.504 311.597,488.571 311.597,485.231 311.597,481.297 310.087,479.787 
			306.154,479.787 304.644,481.297 304.644,485.231 304.644,488.571 304.644,492.504 306.154,494.017 310.087,494.017 		"/>
		<polygon fill="#404040" points="304.416,492.504 304.416,488.571 304.416,485.231 304.416,481.297 302.906,479.787 
			298.972,479.787 297.461,481.297 297.461,485.231 297.461,488.571 297.461,492.504 298.972,494.017 302.906,494.017 		"/>
		<polygon fill="#404040" points="297.236,492.504 297.236,488.571 297.236,485.231 297.236,481.297 295.725,479.787 
			291.792,479.787 290.283,481.297 290.283,485.231 290.283,488.571 290.283,492.504 291.792,494.017 295.725,494.017 		"/>
		<polygon fill="#404040" points="311.597,492.504 311.597,488.571 311.597,485.231 311.597,481.297 310.087,479.787 
			306.154,479.787 304.644,481.297 304.644,485.231 304.644,488.571 304.644,492.504 306.154,494.017 310.087,494.017 		"/>
		<polygon fill="#404040" points="304.416,492.504 304.416,488.571 304.416,485.231 304.416,481.297 302.906,479.787 
			298.972,479.787 297.461,481.297 297.461,485.231 297.461,488.571 297.461,492.504 298.972,494.017 302.906,494.017 		"/>
		<polygon fill="#404040" points="297.236,492.504 297.236,488.571 297.236,485.231 297.236,481.297 295.725,479.787 
			291.792,479.787 290.283,481.297 290.283,485.231 290.283,488.571 290.283,492.504 291.792,494.017 295.725,494.017 		"/>
		<rect x="292.744" y="482.195" fill="#8D8C8C" width="2.299" height="2.298"/>
		<rect x="292.744" y="489.395" fill="#8D8C8C" width="2.299" height="2.297"/>
		<rect x="299.943" y="482.195" fill="#8D8C8C" width="2.299" height="2.298"/>
		<rect x="299.943" y="489.395" fill="#8D8C8C" width="2.299" height="2.297"/>
		<rect x="307.142" y="482.195" fill="#8D8C8C" width="2.299" height="2.298"/>
		<rect x="307.142" y="489.395" fill="#8D8555" width="2.299" height="2.297"/>
		<polygon fill="#404040" points="304.568,319.741 304.568,315.809 304.568,319.741 304.568,315.809 303.058,314.296 
			299.125,314.296 297.613,315.809 297.613,319.741 297.613,315.809 297.613,319.741 299.125,321.251 303.058,321.251 		"/>
		<rect x="307.701" y="489.953" fill="#8C8764" width="1.182" height="1.183"/>
		<polygon fill="#B8AF83" points="309.439,489.395 308.882,489.953 308.882,491.134 309.439,491.693 		"/>
		<polygon fill="#807A5C" points="307.701,491.134 308.882,491.134 309.439,491.693 307.142,491.693 		"/>
		<polygon fill="#5F5C44" points="307.701,489.953 307.701,491.134 307.142,491.693 307.142,489.395 		"/>
		<polygon fill="#9A916C" points="309.439,489.395 308.882,489.953 307.701,489.953 307.142,489.395 		"/>
		<rect x="307.701" y="482.754" fill="#8C8764" width="1.182" height="1.183"/>
		<polygon fill="#B8AF83" points="309.439,482.195 308.882,482.754 308.882,483.935 309.439,484.493 		"/>
		<polygon fill="#807A5C" points="307.701,483.935 308.882,483.935 309.439,484.493 307.142,484.493 		"/>
		<polygon fill="#5F5C44" points="307.701,482.754 307.701,483.935 307.142,484.493 307.142,482.195 		"/>
		<polygon fill="#9A916C" points="309.439,482.195 308.882,482.754 307.701,482.754 307.142,482.195 		"/>
		<rect x="300.501" y="489.953" fill="#8C8764" width="1.182" height="1.183"/>
		<polygon fill="#B8AF83" points="302.242,489.395 301.683,489.953 301.683,491.134 302.242,491.693 		"/>
		<polygon fill="#807A5C" points="300.501,491.134 301.683,491.134 302.242,491.693 299.943,491.693 		"/>
		<polygon fill="#5F5C44" points="300.501,489.953 300.501,491.134 299.943,491.693 299.943,489.395 		"/>
		<polygon fill="#9A916C" points="302.242,489.395 301.683,489.953 300.501,489.953 299.943,489.395 		"/>
		<rect x="300.501" y="482.754" fill="#8C8764" width="1.182" height="1.183"/>
		<polygon fill="#B8AF83" points="302.242,482.195 301.683,482.754 301.683,483.935 302.242,484.493 		"/>
		<polygon fill="#807A5C" points="300.501,483.935 301.683,483.935 302.242,484.493 299.943,484.493 		"/>
		<polygon fill="#5F5C44" points="300.501,482.754 300.501,483.935 299.943,484.493 299.943,482.195 		"/>
		<polygon fill="#9A916C" points="302.242,482.195 301.683,482.754 300.501,482.754 299.943,482.195 		"/>
		<rect x="293.301" y="489.953" fill="#8C8764" width="1.183" height="1.183"/>
		<polygon fill="#B8AF83" points="295.042,489.395 294.484,489.953 294.484,491.134 295.042,491.693 		"/>
		<polygon fill="#807A5C" points="293.301,491.134 294.484,491.134 295.042,491.693 292.744,491.693 		"/>
		<polygon fill="#5F5C44" points="293.301,489.953 293.301,491.134 292.744,491.693 292.744,489.395 		"/>
		<polygon fill="#9A916C" points="295.042,489.395 294.484,489.953 293.301,489.953 292.744,489.395 		"/>
		<rect x="293.301" y="482.754" fill="#8C8764" width="1.183" height="1.183"/>
		<polygon fill="#B8AF83" points="295.042,482.195 294.484,482.754 294.484,483.935 295.042,484.493 		"/>
		<polygon fill="#807A5C" points="293.301,483.935 294.484,483.935 295.042,484.493 292.744,484.493 		"/>
		<polygon fill="#5F5C44" points="293.301,482.754 293.301,483.935 292.744,484.493 292.744,482.195 		"/>
		<polygon fill="#9A916C" points="295.042,482.195 294.484,482.754 293.301,482.754 292.744,482.195 		"/>
		<rect x="300.501" y="317.185" fill="#8C8764" width="1.182" height="1.181"/>
		<polygon fill="#B8AF83" points="302.242,316.624 301.683,317.185 301.683,318.363 302.242,318.922 		"/>
		<polygon fill="#807A5C" points="300.501,318.363 301.683,318.363 302.242,318.922 299.943,318.922 		"/>
		<polygon fill="#5F5C44" points="300.501,317.185 300.501,318.363 299.943,318.922 299.943,316.624 		"/>
		<polygon fill="#9A916C" points="302.242,316.624 301.683,317.185 300.501,317.185 299.943,316.624 		"/>
		<polygon fill="#404040" points="297.371,319.741 297.371,315.81 297.371,319.741 297.371,315.81 295.858,314.297 291.925,314.297 
			290.416,315.81 290.416,319.741 290.416,315.81 290.416,319.741 291.925,321.252 295.858,321.252 		"/>
		<rect x="293.302" y="317.185" fill="#8C8764" width="1.183" height="1.182"/>
		<polygon fill="#B8AF83" points="295.043,316.625 294.484,317.185 294.484,318.364 295.043,318.923 		"/>
		<polygon fill="#807A5C" points="293.302,318.364 294.484,318.364 295.043,318.923 292.744,318.923 		"/>
		<polygon fill="#5F5C44" points="293.302,317.185 293.302,318.364 292.744,318.923 292.744,316.625 		"/>
		<polygon fill="#9A916C" points="295.043,316.625 294.484,317.185 293.302,317.185 292.744,316.625 		"/>
		<polygon fill="#404040" points="290.171,319.741 290.171,315.809 290.171,319.741 290.171,315.809 288.662,314.296 
			284.726,314.296 283.216,315.809 283.216,319.741 283.216,315.809 283.216,319.741 284.726,321.251 288.662,321.251 		"/>
		<rect x="286.104" y="317.185" fill="#8C8764" width="1.184" height="1.181"/>
		<polygon fill="#B8AF83" points="287.843,316.624 287.287,317.185 287.287,318.363 287.843,318.922 		"/>
		<polygon fill="#807A5C" points="286.104,318.363 287.287,318.363 287.843,318.922 285.544,318.922 		"/>
		<polygon fill="#5F5C44" points="286.104,317.185 286.104,318.363 285.544,318.922 285.544,316.624 		"/>
		<polygon fill="#9A916C" points="287.843,316.624 287.287,317.185 286.104,317.185 285.544,316.624 		"/>
		<path fill="#010202" d="M304.568,314.29h-14.152v6.953h14.152V314.29z M292.744,318.923v-2.297h2.299v2.297H292.744z
			 M299.943,318.922v-2.297h2.299v2.297H299.943z"/>
		<rect x="292.547" y="316.077" fill="#756B3A" width="9.941" height="0.549"/>
		<rect x="299.396" y="316.923" fill="#4E4827" width="0.547" height="1.7"/>
		<rect x="295.042" y="316.923" fill="#4E4827" width="0.547" height="1.7"/>
		<polygon fill="#262626" points="304.568,314.29 299.396,314.29 299.396,315.905 302.646,315.905 302.646,319.641 299.396,319.641 
			299.396,321.246 304.568,321.246 		"/>
		<polygon fill="#262626" points="290.416,321.259 295.589,321.259 295.589,319.643 292.339,319.643 292.339,315.907 
			295.589,315.907 295.589,314.302 290.416,314.302 		"/>
		<polyline fill="none" points="302.474,322.285 302.474,323.353 294.994,323.353 294.994,322.285 		"/>
		<polyline fill="none" points="292.845,322.285 292.845,323.353 285.364,323.353 285.364,322.285 		"/>
		<rect x="312.087" y="284.141" fill="#696867" width="33.902" height="37.93"/>
		<rect x="312.087" y="322.07" fill="#696867" width="33.902" height="8.057"/>
		<rect x="232.076" y="299.244" fill="#010202" width="23.829" height="37.262"/>
		<rect x="231.065" y="298.91" fill="#010202" width="26.183" height="7.723"/>
		<rect x="362.291" y="364.576" fill="#404040" width="7.178" height="7.18"/>
		<rect x="364.494" y="366.779" fill="#010202" width="2.771" height="2.773"/>
		<polygon fill="#2B2B2A" points="368.291,365.756 367.267,366.779 367.267,369.552 368.291,370.573 		"/>
		<polygon fill="#484848" points="368.291,370.574 367.263,369.552 364.492,369.552 363.47,370.574 		"/>
		<polygon fill="#5A5A5A" points="363.47,370.573 364.492,369.552 364.492,366.778 363.47,365.756 		"/>
		<polygon fill="#383737" points="363.47,365.755 364.494,366.778 367.267,366.778 368.291,365.755 		"/>
		<rect x="362.291" y="371.754" fill="#404040" width="7.178" height="7.177"/>
		<rect x="364.494" y="373.956" fill="#010202" width="2.771" height="2.771"/>
		<polygon fill="#2B2B2A" points="368.291,372.933 367.267,373.955 367.267,376.729 368.291,377.752 		"/>
		<polygon fill="#484848" points="368.291,377.752 367.263,376.729 364.492,376.729 363.47,377.752 		"/>
		<polygon fill="#5A5A5A" points="363.47,377.75 364.492,376.729 364.492,373.955 363.47,372.933 		"/>
		<polygon fill="#383737" points="363.47,372.932 364.494,373.955 367.267,373.955 368.291,372.932 		"/>
		<rect x="362.291" y="378.931" fill="#404040" width="7.178" height="7.181"/>
		<rect x="364.494" y="381.134" fill="#010202" width="2.771" height="2.771"/>
		<polygon fill="#2B2B2A" points="368.291,380.111 367.267,381.133 367.267,383.907 368.291,384.93 		"/>
		<polygon fill="#484848" points="368.291,384.93 367.263,383.907 364.492,383.907 363.47,384.93 		"/>
		<polygon fill="#5A5A5A" points="363.47,384.929 364.492,383.906 364.492,381.132 363.47,380.111 		"/>
		<polygon fill="#383737" points="363.47,380.11 364.494,381.132 367.267,381.132 368.291,380.11 		"/>
		<rect x="362.291" y="386.109" fill="#404040" width="7.178" height="7.178"/>
		<rect x="364.494" y="388.311" fill="#010202" width="2.771" height="2.773"/>
		<polygon fill="#2B2B2A" points="368.291,387.288 367.267,388.311 367.267,391.084 368.291,392.108 		"/>
		<polygon fill="#484848" points="368.291,392.108 367.263,391.084 364.492,391.084 363.47,392.108 		"/>
		<polygon fill="#5A5A5A" points="363.47,392.106 364.492,391.084 364.492,388.31 363.47,387.288 		"/>
		<polygon fill="#383737" points="363.47,387.286 364.494,388.31 367.267,388.31 368.291,387.286 		"/>
		<rect x="225.514" y="407.769" fill="#404040" width="7.178" height="7.178"/>
		<rect x="227.718" y="409.971" fill="#010202" width="2.771" height="2.772"/>
		<polygon fill="#2B2B2A" points="231.512,408.947 230.492,409.97 230.492,412.744 231.512,413.767 		"/>
		<polygon fill="#484848" points="231.512,413.768 230.487,412.744 227.715,412.744 226.694,413.768 		"/>
		<polygon fill="#5A5A5A" points="226.694,413.767 227.715,412.744 227.715,409.97 226.694,408.947 		"/>
		<polygon fill="#383737" points="226.694,408.947 227.717,409.97 230.492,409.97 231.512,408.947 		"/>
		<rect x="225.514" y="400.57" fill="#404040" width="7.178" height="7.179"/>
		<rect x="227.718" y="402.773" fill="#010202" width="2.771" height="2.773"/>
		<polygon fill="#2B2B2A" points="231.512,401.749 230.492,402.771 230.492,405.545 231.512,406.567 		"/>
		<polygon fill="#484848" points="231.512,406.569 230.487,405.545 227.715,405.545 226.694,406.569 		"/>
		<polygon fill="#5A5A5A" points="226.694,406.567 227.715,405.545 227.715,402.771 226.694,401.749 		"/>
		<polygon fill="#383737" points="226.694,401.749 227.717,402.771 230.492,402.771 231.512,401.749 		"/>
		<rect x="225.514" y="393.371" fill="#404040" width="7.178" height="7.178"/>
		<rect x="227.718" y="395.573" fill="#010202" width="2.771" height="2.773"/>
		<polygon fill="#2B2B2A" points="231.512,394.55 230.492,395.572 230.492,398.347 231.512,399.368 		"/>
		<polygon fill="#484848" points="231.512,399.369 230.487,398.347 227.715,398.347 226.694,399.369 		"/>
		<polygon fill="#5A5A5A" points="226.694,399.368 227.715,398.347 227.715,395.572 226.694,394.55 		"/>
		<polygon fill="#383737" points="226.694,394.55 227.717,395.572 230.492,395.572 231.512,394.55 		"/>
		<rect x="225.514" y="414.945" fill="#404040" width="7.178" height="7.18"/>
		<rect x="227.718" y="417.149" fill="#010202" width="2.771" height="2.771"/>
		<polygon fill="#2B2B2A" points="231.512,416.125 230.492,417.148 230.492,419.92 231.512,420.944 		"/>
		<polygon fill="#484848" points="231.512,420.945 230.487,419.92 227.715,419.92 226.694,420.945 		"/>
		<polygon fill="#5A5A5A" points="226.694,420.944 227.715,419.92 227.715,417.146 226.694,416.125 		"/>
		<polygon fill="#383737" points="226.694,416.125 227.717,417.146 230.492,417.146 231.512,416.125 		"/>
		<rect x="225.514" y="422.123" fill="#404040" width="7.178" height="7.181"/>
		<rect x="227.718" y="424.326" fill="#010202" width="2.771" height="2.774"/>
		<polygon fill="#2B2B2A" points="231.512,423.304 230.492,424.324 230.492,427.102 231.512,428.121 		"/>
		<polygon fill="#484848" points="231.512,428.121 230.487,427.102 227.715,427.102 226.694,428.121 		"/>
		<polygon fill="#5A5A5A" points="226.694,428.121 227.715,427.102 227.715,424.324 226.694,423.304 		"/>
		<polygon fill="#383737" points="226.694,423.304 227.717,424.324 230.492,424.324 231.512,423.304 		"/>
		<rect x="225.514" y="429.302" fill="#404040" width="7.178" height="7.179"/>
		<rect x="227.718" y="431.502" fill="#010202" width="2.771" height="2.773"/>
		<polygon fill="#2B2B2A" points="231.512,430.479 230.492,431.502 230.492,434.278 231.512,435.3 		"/>
		<polygon fill="#484848" points="231.512,435.3 230.487,434.278 227.715,434.278 226.694,435.3 		"/>
		<polygon fill="#5A5A5A" points="226.694,435.3 227.715,434.276 227.715,431.502 226.694,430.479 		"/>
		<polygon fill="#383737" points="226.694,430.479 227.717,431.502 230.492,431.502 231.512,430.479 		"/>
		<rect x="225.514" y="443.763" fill="#404040" width="7.178" height="7.179"/>
		<rect x="227.718" y="445.965" fill="#010202" width="2.771" height="2.771"/>
		<polygon fill="#2B2B2A" points="231.512,444.943 230.492,445.963 230.492,448.738 231.512,449.761 		"/>
		<polygon fill="#484848" points="231.512,449.763 230.487,448.738 227.715,448.738 226.694,449.763 		"/>
		<polygon fill="#5A5A5A" points="226.694,449.761 227.715,448.737 227.715,445.963 226.694,444.943 		"/>
		<polygon fill="#383737" points="226.694,444.943 227.717,445.963 230.492,445.963 231.512,444.943 		"/>
		<rect x="225.514" y="450.941" fill="#404040" width="7.178" height="7.178"/>
		<rect x="227.718" y="453.143" fill="#010202" width="2.771" height="2.772"/>
		<polygon fill="#2B2B2A" points="231.512,452.121 230.492,453.143 230.492,455.916 231.512,456.94 		"/>
		<polygon fill="#484848" points="231.512,456.94 230.487,455.916 227.715,455.916 226.694,456.94 		"/>
		<polygon fill="#5A5A5A" points="226.694,456.938 227.715,455.914 227.715,453.142 226.694,452.121 		"/>
		<polygon fill="#383737" points="226.694,452.118 227.717,453.142 230.492,453.142 231.512,452.118 		"/>
		<rect x="225.514" y="458.118" fill="#404040" width="7.178" height="7.182"/>
		<rect x="227.718" y="460.32" fill="#010202" width="2.771" height="2.773"/>
		<polygon fill="#2B2B2A" points="231.512,459.295 230.492,460.32 230.492,463.093 231.512,464.115 		"/>
		<polygon fill="#484848" points="231.512,464.115 230.487,463.093 227.715,463.093 226.694,464.115 		"/>
		<polygon fill="#5A5A5A" points="226.694,464.115 227.715,463.093 227.715,460.32 226.694,459.295 		"/>
		<polygon fill="#383737" points="226.694,459.295 227.717,460.32 230.492,460.32 231.512,459.295 		"/>
		<rect x="225.514" y="465.295" fill="#404040" width="7.178" height="7.179"/>
		<rect x="227.718" y="467.498" fill="#010202" width="2.771" height="2.771"/>
		<polygon fill="#2B2B2A" points="231.512,466.476 230.492,467.496 230.492,470.272 231.512,471.293 		"/>
		<polygon fill="#484848" points="231.512,471.293 230.487,470.272 227.715,470.272 226.694,471.293 		"/>
		<polygon fill="#5A5A5A" points="226.694,471.293 227.715,470.271 227.715,467.496 226.694,466.476 		"/>
		<polygon fill="#383737" points="226.694,466.476 227.717,467.496 230.492,467.496 231.512,466.476 		"/>
		<rect x="225.514" y="472.474" fill="#404040" width="7.178" height="7.177"/>
		<rect x="227.718" y="474.675" fill="#010202" width="2.771" height="2.771"/>
		<polygon fill="#2B2B2A" points="231.512,473.651 230.492,474.675 230.492,477.448 231.512,478.47 		"/>
		<polygon fill="#484848" points="231.512,478.472 230.487,477.448 227.715,477.448 226.694,478.472 		"/>
		<polygon fill="#5A5A5A" points="226.694,478.47 227.715,477.446 227.715,474.675 226.694,473.651 		"/>
		<polygon fill="#383737" points="226.694,473.651 227.717,474.675 230.492,474.675 231.512,473.651 		"/>
		<rect x="225.514" y="479.65" fill="#404040" width="7.178" height="7.178"/>
		<rect x="227.718" y="481.853" fill="#010202" width="2.771" height="2.771"/>
		<polygon fill="#2B2B2A" points="231.512,480.828 230.492,481.851 230.492,484.625 231.512,485.647 		"/>
		<polygon fill="#484848" points="231.512,485.649 230.487,484.625 227.715,484.625 226.694,485.649 		"/>
		<polygon fill="#5A5A5A" points="226.694,485.647 227.715,484.623 227.715,481.851 226.694,480.828 		"/>
		<polygon fill="#383737" points="226.694,480.828 227.717,481.851 230.492,481.851 231.512,480.828 		"/>
		<rect x="362.291" y="393.287" fill="#404040" width="7.178" height="7.179"/>
		<rect x="364.494" y="395.489" fill="#010202" width="2.771" height="2.772"/>
		<polygon fill="#2B2B2A" points="368.291,394.466 367.267,395.488 367.267,398.263 368.291,399.284 		"/>
		<polygon fill="#484848" points="368.291,399.284 367.263,398.263 364.492,398.263 363.47,399.284 		"/>
		<polygon fill="#5A5A5A" points="363.47,399.284 364.492,398.261 364.492,395.488 363.47,394.466 		"/>
		<polygon fill="#383737" points="363.47,394.464 364.494,395.488 367.267,395.488 368.291,394.464 		"/>
		<rect x="362.291" y="400.464" fill="#404040" width="7.178" height="7.179"/>
		<rect x="364.494" y="402.666" fill="#010202" width="2.771" height="2.771"/>
		<polygon fill="#2B2B2A" points="368.291,401.644 367.267,402.666 367.267,405.44 368.291,406.462 		"/>
		<polygon fill="#484848" points="368.291,406.462 367.263,405.44 364.492,405.44 363.47,406.462 		"/>
		<polygon fill="#5A5A5A" points="363.47,406.462 364.492,405.439 364.492,402.665 363.47,401.644 		"/>
		<polygon fill="#383737" points="363.47,401.643 364.494,402.665 367.267,402.665 368.291,401.643 		"/>
		<rect x="362.291" y="407.642" fill="#404040" width="7.178" height="7.178"/>
		<rect x="364.494" y="409.845" fill="#010202" width="2.771" height="2.772"/>
		<polygon fill="#2B2B2A" points="368.291,408.822 367.267,409.843 367.267,412.618 368.291,413.642 		"/>
		<polygon fill="#484848" points="368.291,413.642 367.263,412.618 364.492,412.618 363.47,413.642 		"/>
		<polygon fill="#5A5A5A" points="363.47,413.64 364.492,412.617 364.492,409.843 363.47,408.822 		"/>
		<polygon fill="#383737" points="363.47,408.82 364.494,409.843 367.267,409.843 368.291,408.82 		"/>
		<rect x="362.291" y="414.819" fill="#404040" width="7.178" height="7.18"/>
		<rect x="364.494" y="417.023" fill="#010202" width="2.771" height="2.771"/>
		<polygon fill="#2B2B2A" points="368.291,415.998 367.267,417.021 367.267,419.795 368.291,420.818 		"/>
		<polygon fill="#484848" points="368.291,420.818 367.263,419.795 364.492,419.795 363.47,420.818 		"/>
		<polygon fill="#5A5A5A" points="363.47,420.817 364.492,419.793 364.492,417.021 363.47,415.998 		"/>
		<polygon fill="#383737" points="363.47,415.996 364.494,417.021 367.267,417.021 368.291,415.996 		"/>
		<rect x="362.291" y="429.364" fill="#404040" width="7.178" height="7.181"/>
		<rect x="364.494" y="431.569" fill="#010202" width="2.771" height="2.771"/>
		<polygon fill="#2B2B2A" points="368.291,430.543 367.267,431.566 367.267,434.34 368.291,435.362 		"/>
		<polygon fill="#484848" points="368.291,435.362 367.263,434.34 364.492,434.34 363.47,435.362 		"/>
		<polygon fill="#5A5A5A" points="363.47,435.362 364.492,434.34 364.492,431.566 363.47,430.543 		"/>
		<polygon fill="#383737" points="363.47,430.543 364.494,431.566 367.267,431.566 368.291,430.543 		"/>
		<rect x="362.291" y="436.543" fill="#404040" width="7.178" height="7.177"/>
		<rect x="364.494" y="438.746" fill="#010202" width="2.771" height="2.772"/>
		<polygon fill="#2B2B2A" points="368.291,437.722 367.267,438.746 367.267,441.519 368.291,442.539 		"/>
		<polygon fill="#484848" points="368.291,442.541 367.263,441.519 364.492,441.519 363.47,442.541 		"/>
		<polygon fill="#5A5A5A" points="363.47,442.539 364.492,441.519 364.492,438.744 363.47,437.722 		"/>
		<polygon fill="#383737" points="363.47,437.722 364.494,438.744 367.267,438.744 368.291,437.722 		"/>
		<rect x="362.291" y="443.72" fill="#404040" width="7.178" height="7.181"/>
		<rect x="364.494" y="445.922" fill="#010202" width="2.771" height="2.772"/>
		<polygon fill="#2B2B2A" points="368.291,444.9 367.267,445.922 367.267,448.695 368.291,449.72 		"/>
		<polygon fill="#484848" points="368.291,449.72 367.263,448.695 364.492,448.695 363.47,449.72 		"/>
		<polygon fill="#5A5A5A" points="363.47,449.718 364.492,448.695 364.492,445.92 363.47,444.9 		"/>
		<polygon fill="#383737" points="363.47,444.899 364.494,445.92 367.267,445.92 368.291,444.899 		"/>
		<rect x="362.291" y="450.898" fill="#404040" width="7.178" height="7.179"/>
		<rect x="364.494" y="453.102" fill="#010202" width="2.771" height="2.771"/>
		<polygon fill="#2B2B2A" points="368.291,452.077 367.267,453.099 367.267,455.873 368.291,456.896 		"/>
		<polygon fill="#484848" points="368.291,456.896 367.263,455.873 364.492,455.873 363.47,456.896 		"/>
		<polygon fill="#5A5A5A" points="363.47,456.896 364.492,455.871 364.492,453.099 363.47,452.077 		"/>
		<polygon fill="#383737" points="363.47,452.077 364.494,453.099 367.267,453.099 368.291,452.077 		"/>
		<rect x="362.291" y="458.075" fill="#404040" width="7.178" height="7.179"/>
		<rect x="364.494" y="460.278" fill="#010202" width="2.771" height="2.773"/>
		<polygon fill="#2B2B2A" points="368.291,459.254 367.267,460.277 367.267,463.052 368.291,464.072 		"/>
		<polygon fill="#484848" points="368.291,464.072 367.263,463.052 364.492,463.052 363.47,464.072 		"/>
		<polygon fill="#5A5A5A" points="363.47,464.072 364.492,463.052 364.492,460.277 363.47,459.254 		"/>
		<polygon fill="#383737" points="363.47,459.254 364.494,460.277 367.267,460.277 368.291,459.254 		"/>
		<rect x="362.291" y="465.252" fill="#404040" width="7.178" height="7.181"/>
		<rect x="364.494" y="467.455" fill="#010202" width="2.771" height="2.771"/>
		<polygon fill="#2B2B2A" points="368.291,466.433 367.267,467.455 367.267,470.228 368.291,471.25 		"/>
		<polygon fill="#484848" points="368.291,471.25 367.263,470.228 364.492,470.228 363.47,471.25 		"/>
		<polygon fill="#5A5A5A" points="363.47,471.25 364.492,470.228 364.492,467.455 363.47,466.433 		"/>
		<polygon fill="#383737" points="363.47,466.431 364.494,467.455 367.267,467.455 368.291,466.431 		"/>
		<rect x="362.291" y="472.431" fill="#404040" width="7.178" height="7.179"/>
		<rect x="364.494" y="474.634" fill="#010202" width="2.771" height="2.771"/>
		<polygon fill="#2B2B2A" points="368.291,473.611 367.267,474.634 367.267,477.405 368.291,478.429 		"/>
		<polygon fill="#484848" points="368.291,478.431 367.263,477.405 364.492,477.405 363.47,478.431 		"/>
		<polygon fill="#5A5A5A" points="363.47,478.429 364.492,477.405 364.492,474.631 363.47,473.611 		"/>
		<polygon fill="#383737" points="363.47,473.607 364.494,474.631 367.267,474.631 368.291,473.607 		"/>
		<rect x="362.291" y="479.608" fill="#404040" width="7.178" height="7.18"/>
		<rect x="364.494" y="481.811" fill="#010202" width="2.771" height="2.772"/>
		<polygon fill="#2B2B2A" points="368.291,480.787 367.267,481.81 367.267,484.584 368.291,485.607 		"/>
		<polygon fill="#484848" points="368.291,485.607 367.263,484.584 364.492,484.584 363.47,485.607 		"/>
		<polygon fill="#5A5A5A" points="363.47,485.605 364.492,484.582 364.492,481.81 363.47,480.787 		"/>
		<polygon fill="#383737" points="363.47,480.787 364.494,481.81 367.267,481.81 368.291,480.787 		"/>
		<g>
			<text transform="matrix(1 0 0 1 347.3687 370.1747)" fill="#FFFFFF" font-family="'ArialMT'" font-size="5">AREF</text>
			<text transform="matrix(1 0 0 1 350.7944 377.1747)" fill="#FFFFFF" font-family="'ArialMT'" font-size="5">GND</text>
			<text transform="matrix(1 0 0 1 234.5127 398.7343)" fill="#FFFFFF" font-family="'ArialMT'" font-size="5">RESET</text>
			<text transform="matrix(1 0 0 1 234.5127 405.7343)" fill="#FFFFFF" font-family="'ArialMT'" font-size="5">3V3</text>
			<text transform="matrix(1 0 0 1 337.4077 398.6269)" fill="#FFFFFF" font-family="'ArialMT'" font-size="5">PWM</text>
			<text transform="matrix(1 0 0 1 337.4077 405.9257)" fill="#FFFFFF" font-family="'ArialMT'" font-size="5">PWM</text>
			<text transform="matrix(1 0 0 1 337.4077 413.2265)" fill="#FFFFFF" font-family="'ArialMT'" font-size="5">PWM</text>
			
				<text transform="matrix(-4.371139e-008 1 -1 -4.371139e-008 337.3511 385.6547)" fill="#FFFFFF" font-family="'ArialMT'" font-size="5">L</text>
			
				<text transform="matrix(-4.371139e-008 1 -1 -4.371139e-008 325.3511 385.6547)" fill="#FFFFFF" font-family="'ArialMT'" font-size="5">TX</text>
			
				<text transform="matrix(-4.371139e-008 1 -1 -4.371139e-008 319.3511 385.6547)" fill="#FFFFFF" font-family="'ArialMT'" font-size="5">RX</text>
			
				<text transform="matrix(-4.371139e-008 1 -1 -4.371139e-008 296.1318 325.1235)" fill="#FFFFFF" font-family="'ArialMT'" font-size="5">USB</text>
			
				<text transform="matrix(-4.371139e-008 1 -1 -4.371139e-008 287.1318 325.1235)" fill="#FFFFFF" font-family="'ArialMT'" font-size="5">EXT</text>
			<text transform="matrix(1 0 0 1 281.6025 312.5068)" fill="#FFFFFF" font-family="'ArialMT'" font-size="5">PWR</text>
			<text transform="matrix(1 0 0 1 294.8096 312.5068)" fill="#FFFFFF" font-family="'ArialMT'" font-size="5">SEL</text>
			
				<text transform="matrix(-4.371139e-008 1 -1 -4.371139e-008 322.062 476.3427)" fill="#FFFFFF" font-family="'ArialMT'" font-size="5">PWR</text>
			
				<text transform="matrix(-4.371139e-008 1 -1 -4.371139e-008 284.6084 480.4667)" fill="#FFFFFF" font-family="'ArialMT'" font-size="5">ICSP</text>
			<text transform="matrix(1 0 0 1 337.4077 442.4687)" fill="#FFFFFF" font-family="'ArialMT'" font-size="5">PWM</text>
			<text transform="matrix(1 0 0 1 337.4077 449.6181)" fill="#FFFFFF" font-family="'ArialMT'" font-size="5">PWM</text>
			<text transform="matrix(1 0 0 1 337.4077 463.9189)" fill="#FFFFFF" font-family="'ArialMT'" font-size="5">PWM</text>
			<text transform="matrix(1 0 0 1 346.9429 478.4482)" fill="#FFFFFF" font-family="'ArialMT'" font-size="5">TX</text>
			<text transform="matrix(1 0 0 1 346.9429 485.5976)" fill="#FFFFFF" font-family="'ArialMT'" font-size="5">RX</text>
			
				<text transform="matrix(-4.371139e-008 1 -1 -4.371139e-008 355.5972 380.8637)" fill="#FFFFFF" font-family="'ArialMT'" font-size="5">3</text>
			
				<text transform="matrix(-4.371139e-008 1 -1 -4.371139e-008 349.5972 380.8637)" fill="#FFFFFF" font-family="'ArialMT'" font-size="5">1</text>
			
				<text transform="matrix(-4.371139e-008 1 -1 -4.371139e-008 355.5972 388.0395)" fill="#FFFFFF" font-family="'ArialMT'" font-size="5">2</text>
			
				<text transform="matrix(-4.371139e-008 1 -1 -4.371139e-008 349.5972 388.0395)" fill="#FFFFFF" font-family="'ArialMT'" font-size="5">1</text>
			
				<text transform="matrix(-4.371139e-008 1 -1 -4.371139e-008 355.5972 395.2162)" fill="#FFFFFF" font-family="'ArialMT'" font-size="5">1</text>
			
				<text transform="matrix(-4.371139e-008 1 -1 -4.371139e-008 349.5972 395.2162)" fill="#FFFFFF" font-family="'ArialMT'" font-size="5">1</text>
			
				<text transform="matrix(-4.371139e-008 1 -1 -4.371139e-008 355.5972 402.394)" fill="#FFFFFF" font-family="'ArialMT'" font-size="5">0</text>
			
				<text transform="matrix(-4.371139e-008 1 -1 -4.371139e-008 349.5972 402.394)" fill="#FFFFFF" font-family="'ArialMT'" font-size="5">1</text>
			
				<text transform="matrix(-4.371139e-008 1 -1 -4.371139e-008 355.5972 409.5707)" fill="#FFFFFF" font-family="'ArialMT'" font-size="5">9</text>
			
				<text transform="matrix(-4.371139e-008 1 -1 -4.371139e-008 355.5972 416.747)" fill="#FFFFFF" font-family="'ArialMT'" font-size="5">8</text>
			
				<text transform="matrix(-4.371139e-008 1 -1 -4.371139e-008 349.5308 413.9765)" fill="#FFFFFF" font-family="'ArialMT'" font-size="5">DIGITAL</text>
			
				<text transform="matrix(-4.371139e-008 1 -1 -4.371139e-008 355.5972 431.1454)" fill="#FFFFFF" font-family="'ArialMT'" font-size="5">7</text>
			
				<text transform="matrix(-4.371139e-008 1 -1 -4.371139e-008 355.5972 438.33)" fill="#FFFFFF" font-family="'ArialMT'" font-size="5">6</text>
			
				<text transform="matrix(-4.371139e-008 1 -1 -4.371139e-008 355.5972 445.5146)" fill="#FFFFFF" font-family="'ArialMT'" font-size="5">5</text>
			
				<text transform="matrix(-4.371139e-008 1 -1 -4.371139e-008 355.5972 452.6982)" fill="#FFFFFF" font-family="'ArialMT'" font-size="5">4</text>
			
				<text transform="matrix(-4.371139e-008 1 -1 -4.371139e-008 355.5972 459.8828)" fill="#FFFFFF" font-family="'ArialMT'" font-size="5">3</text>
			
				<text transform="matrix(-4.371139e-008 1 -1 -4.371139e-008 355.5972 467.0673)" fill="#FFFFFF" font-family="'ArialMT'" font-size="5">2</text>
			
				<text transform="matrix(-4.371139e-008 1 -1 -4.371139e-008 355.5972 474.2519)" fill="#FFFFFF" font-family="'ArialMT'" font-size="5">1</text>
			
				<text transform="matrix(-4.371139e-008 1 -1 -4.371139e-008 355.5972 481.4355)" fill="#FFFFFF" font-family="'ArialMT'" font-size="5">0</text>
			<text transform="matrix(1 0 0 1 312.7944 484.9326)" fill="#FFFFFF" font-family="'ArialMT'" font-size="5">1</text>
			
				<text transform="matrix(-4.371139e-008 1 -1 -4.371139e-008 235.0264 407.2621)" fill="#FFFFFF" font-family="'ArialMT'" font-size="5">5V</text>
			
				<text transform="matrix(-4.371139e-008 1 -1 -4.371139e-008 235.0264 416.7861)" fill="#FFFFFF" font-family="'ArialMT'" font-size="5">Gnd</text>
			
				<text transform="matrix(-4.371139e-008 1 -1 -4.371139e-008 241.6045 412.2792)" fill="#FFFFFF" font-family="'ArialMT'" font-size="5">POWER</text>
			
				<text transform="matrix(-4.371139e-008 1 -1 -4.371139e-008 251.6475 415.0468)" fill="#FFFFFF" font-family="'ArialMT'" font-size="5">www.arduino.cc</text>
			
				<text transform="matrix(-4.371139e-008 1 -1 -4.371139e-008 241.8037 449.2792)" fill="#FFFFFF" font-family="'ArialMT'" font-size="5">ANALOG IN</text>
			
				<text transform="matrix(-4.371139e-008 1 -1 -4.371139e-008 235.0264 429.7587)" fill="#FFFFFF" font-family="'ArialMT'" font-size="5">Vin</text>
			
				<text transform="matrix(-4.371139e-008 1 -1 -4.371139e-008 235.0264 445.6122)" fill="#FFFFFF" font-family="'ArialMT'" font-size="5">0</text>
			
				<text transform="matrix(-4.371139e-008 1 -1 -4.371139e-008 235.0264 452.8095)" fill="#FFFFFF" font-family="'ArialMT'" font-size="5">1</text>
			
				<text transform="matrix(-4.371139e-008 1 -1 -4.371139e-008 235.0264 460.0078)" fill="#FFFFFF" font-family="'ArialMT'" font-size="5">2</text>
			
				<text transform="matrix(-4.371139e-008 1 -1 -4.371139e-008 235.0264 467.205)" fill="#FFFFFF" font-family="'ArialMT'" font-size="5">3</text>
			
				<text transform="matrix(-4.371139e-008 1 -1 -4.371139e-008 235.0264 474.4023)" fill="#FFFFFF" font-family="'ArialMT'" font-size="5">4</text>
			
				<text transform="matrix(-4.371139e-008 1 -1 -4.371139e-008 235.0264 481.5995)" fill="#FFFFFF" font-family="'ArialMT'" font-size="5">5</text>
			
				<text transform="matrix(-4.371139e-008 1 -1 -4.371139e-008 321.9956 400.2348)" fill="#FFFFFF" font-family="'ArialMT'" font-size="9.1394">Arduino</text>
		</g>
	</g>
</g>
<text transform="matrix(1 0 0 1 372.1187 395.7214)" fill="#706F6F" font-family="'ArialMT'" font-size="5">Digital Out 02</text>
<text transform="matrix(1 0 0 1 372.1187 402.8972)" fill="#706F6F" font-family="'ArialMT'" font-size="5">Digital Out 01</text>
<text transform="matrix(1 0 0 1 372.1187 410.0759)" fill="#E94E1B" font-family="'ArialMT'" font-size="5">PWM 05</text>
<text transform="matrix(1 0 0 1 372.1187 417.2527)" fill="#E94E1B" font-family="'ArialMT'" font-size="5">PWM 04</text>
<text transform="matrix(1 0 0 1 372.1187 424.4314)" fill="#E94E1B" font-family="'ArialMT'" font-size="5">PWM 03</text>
<text transform="matrix(1 0 0 1 372.1187 431.6072)" fill="#706F6F" font-family="'ArialMT'" font-size="5">Digital Out00</text>
<text transform="matrix(1 0 0 1 372.1187 446.1541)" fill="#C6C6C6" font-family="'ArialMT'" font-size="5">Digital In 03</text>
<text transform="matrix(1 0 0 1 372.1187 453.3308)" fill="#E94E1B" font-family="'ArialMT'" font-size="5">PWM 02</text>
<text transform="matrix(1 0 0 1 372.1187 460.5076)" fill="#E94E1B" font-family="'ArialMT'" font-size="5">PWM 01</text>
<text transform="matrix(1 0 0 1 372.1187 474.864)" fill="#E94E1B" font-family="'ArialMT'" font-size="5">PWM 00</text>
<text transform="matrix(1 0 0 1 372.1187 467.6873)" fill="#C6C6C6" font-family="'ArialMT'" font-size="5">Digital In 01</text>
<text transform="matrix(1 0 0 1 372.1187 482.0847)" fill="#C6C6C6" font-family="'ArialMT'" font-size="5">Digital In 00</text>
<text transform="matrix(1 0 0 1 372.1187 489.2195)" fill="#EDEDED" font-family="'ArialMT'" font-size="5">TX</text>
<text transform="matrix(1 0 0 1 372.1187 496.3972)" fill="#EDEDED" font-family="'ArialMT'" font-size="5">RX</text>
<text transform="matrix(1 0 0 1 195.0405 460.5505)" fill="#F9B233" font-family="'ArialMT'" font-size="5">Analog In 00</text>
<text transform="matrix(1 0 0 1 195.0405 474.906)" fill="#F9B233" font-family="'ArialMT'" font-size="5">Analog In 02</text>
<text transform="matrix(1 0 0 1 195.0405 467.7302)" fill="#F9B233" font-family="'ArialMT'" font-size="5">Analog In 01</text>
<text transform="matrix(1 0 0 1 195.0405 482.1267)" fill="#F9B233" font-family="'ArialMT'" font-size="5">Analog In 03</text>
<text transform="matrix(1 0 0 1 195.0405 489.2605)" fill="#F9B233" font-family="'ArialMT'" font-size="5">Analog In 04</text>
<text transform="matrix(1 0 0 1 195.0405 496.4392)" fill="#F9B233" font-family="'ArialMT'" font-size="5">Analog In 05</text>
<rect x="216.97" y="224.341" fill="none" width="180.17" height="71"/>
<text transform="matrix(1 0 0 1 216.9702 234.2805)"><tspan x="0" y="0" font-family="'MyriadPro-Regular'" font-size="14">Basicmata Pinmapping</tspan><tspan x="0" y="10.8" font-family="'MyriadPro-Regular'" font-size="9">20110429</tspan><tspan x="0" y="21.6" font-family="'MyriadPro-Regular'" font-size="9">http://code.google.com/p/basicmata/</tspan><tspan x="0" y="32.4" font-family="'MyriadPro-Regular'" font-size="9">&amp;</tspan><tspan x="0" y="43.2" font-family="'MyriadPro-Regular'" font-size="9">http://www.explorative-environments.net/</tspan></text>
</svg>
